<svg height="511pt" viewBox="0 -74 511.99962 511" width="511pt" xmlns="http://www.w3.org/2000/svg"><path style="fill:#ffffff;" d="m79.175781 207.78125c8.519531 60.472656 47.03125 115.257812 106.585938 141.382812 23.105469 10.128907 47.539062 15.207032 72.023437 15.207032 22.203125 0 44.449219-4.179688 65.753906-12.558594 14.886719-5.859375 28.722657-13.515625 41.269532-22.765625-49.117188-12.480469-106.324219-33.296875-158.164063-56.023437-47.007812-20.617188-90.878906-43.113282-127.46875-65.242188zm0 0"/><path style="fill:#ffffff;" d="m238.398438 130.597656c9.679687 0 17.558593-7.988281 17.558593-17.796875 0-9.808593-7.878906-17.789062-17.558593-17.789062-9.675782 0-17.554688 7.980469-17.554688 17.789062 0 9.808594 7.878906 17.796875 17.554688 17.796875zm0 0"/><path style="fill:#ffffff;" d="m491.296875 248.777344c-12.558594-13.027344-30.789063-27.523438-54.238281-43.152344 9.988281-78.152344-31.679688-156.921875-106.910156-189.914062-44.0625-19.328126-93-20.265626-137.777344-2.648438-28.988282 11.394531-54 29.671875-73.3125 53.140625-27.269532-6.617187-50.179688-10.167969-68.175782-10.550781-9.789062-.214844-39.566406-.84375-48.601562 20.050781-9.335938 21.578125 9.824219 48.253906 60.289062 83.945313 42.09375 29.773437 101.070313 62.867187 166.070313 91.371093 83.265625 36.515625 180.402344 67.089844 235.546875 67.089844 11.269531 0 20.792969-1.320313 28.078125-4.183594 10.609375-4.171875 15.371094-10.917969 17.5-15.839843 9.003906-20.804688-11.675781-42.257813-18.46875-49.308594zm-252.898437-183.761719c26.226562 0 47.550781 21.4375 47.550781 47.785156 0 26.359375-21.324219 47.796875-47.550781 47.796875-26.214844 0-47.546876-21.4375-47.546876-47.796875 0-26.347656 21.332032-47.785156 47.546876-47.785156zm-208.003907 22.960937c4.316407-1.78125 21.21875-6.066406 70.519531 4.800782-3.105468 5.53125-5.957031 11.238281-8.511718 17.144531-1.179688 2.71875-2.277344 5.457031-3.308594 8.207031-2.808594 7.449219-5.09375 13.171875-6.875 18.664063-38.21875-26.695313-49.867188-42.972657-51.824219-48.816407zm379.457031 192.738282c2.804688-4.414063 5.445313-8.957032 7.882813-13.640625 2.0625-3.949219 3.980469-7.988281 5.769531-12.121094 2.332032-5.378906 4.378906-10.808594 6.148438-16.277344.164062-.496093.308594-.996093.46875-1.492187 41.542968 29.003906 49.855468 44.386718 51.472656 48.777344-5.65625 2.527343-25.695312 4.996093-71.742188-5.246094zm0 0"/></svg>